<?xml version="1.0" encoding="UTF-8"?>
<svg width="12px" height="15px" viewBox="0 0 12 15" version="1.1" xmlns="http://www.w3.org/2000/svg" xmlns:xlink="http://www.w3.org/1999/xlink">
    <!-- Generator: Sketch 50.2 (55047) - http://www.bohemiancoding.com/sketch -->
    <title>ic_directions_bus_black_24px</title>
    <desc>Created with Sketch.</desc>
    <defs></defs>
    <g id="Symbols" stroke="none" stroke-width="1" fill="none" fill-rule="evenodd">
        <g id="Line-card-Copy-6" transform="translate(-75.000000, -62.000000)" fill="#606C74" fill-rule="nonzero">
            <g id="Line">
                <g id="ic_directions_bus_black_24px" transform="translate(75.000000, 62.000000)">
                    <path d="M0,11.0585702 C0,11.6952627 0.2925,12.2668389 0.75,12.6647717 L0.75,13.952627 C0.75,14.3505599 1.0875,14.6761413 1.5,14.6761413 L2.25,14.6761413 C2.6625,14.6761413 3,14.3505599 3,13.952627 L3,13.2291128 L9,13.2291128 L9,13.952627 C9,14.3505599 9.3375,14.6761413 9.75,14.6761413 L10.5,14.6761413 C10.9125,14.6761413 11.25,14.3505599 11.25,13.952627 L11.25,12.6647717 C11.7075,12.2668389 12,11.6952627 12,11.0585702 L12,3.82342808 C12,1.29112834 9.315,0.929371232 6,0.929371232 C2.685,0.929371232 0,1.29112834 0,3.82342808 L0,11.0585702 Z M2.625,11.7820844 C2.0025,11.7820844 1.5,11.2973299 1.5,10.6968131 C1.5,10.0962963 2.0025,9.61154177 2.625,9.61154177 C3.2475,9.61154177 3.75,10.0962963 3.75,10.6968131 C3.75,11.2973299 3.2475,11.7820844 2.625,11.7820844 Z M9.375,11.7820844 C8.7525,11.7820844 8.25,11.2973299 8.25,10.6968131 C8.25,10.0962963 8.7525,9.61154177 9.375,9.61154177 C9.9975,9.61154177 10.5,10.0962963 10.5,10.6968131 C10.5,11.2973299 9.9975,11.7820844 9.375,11.7820844 Z M10.5,7.44099914 L1.5,7.44099914 L1.5,3.82342808 L10.5,3.82342808 L10.5,7.44099914 Z" id="Shape"></path>
                </g>
            </g>
        </g>
    </g>
</svg>